<svg xmlns="http://www.w3.org/2000/svg" viewBox="0 0 110 79">
  <path d="M17.6535 73.5H17.9574L18.0974 73.2302L55.4438 1.23022L55.8226 0.5H55H39.7732H39.4709L39.3305 0.767712L1.55723 72.7677L1.17305 73.5H2H17.6535Z" fill="#1A1A1A" stroke="white"></path>
  <path d="M40.6535 73.5H40.9574L41.0974 73.2302L78.4438 1.23022L78.8226 0.5H78H62.7732H62.4709L62.3305 0.767712L24.5572 72.7677L24.1731 73.5H25H40.6535Z" fill="#5E5E5E" stroke="white"></path>
  <path fillrule="evenodd" cliprule="evenodd" d="M45.0199 73.2139H79.5611V64.3745H60.0807L66.4722 56.9972C69.8719 53.5975 72.331 50.8891 73.8496 48.8719C75.3908 46.8321 76.524 44.8942 77.2493 43.0584C77.9746 41.1999 78.3372 39.296 78.3372 37.3469C78.3372 32.7232 76.8867 29.1762 73.9856 26.7057C71.1071 24.2352 66.9935 23 61.6446 23C58.3129 23 55.2984 23.7253 52.6013 25.1758C49.9042 26.6264 47.7964 28.6435 46.2778 31.2273C44.7593 33.7885 44 36.5876 44 39.6247H55.4911C55.4911 37.4035 56.035 35.5563 57.123 34.0831C58.2109 32.5873 59.6274 31.8393 61.3726 31.8393C63.1405 31.8393 64.489 32.3946 65.4183 33.5052C66.3475 34.6158 66.8122 36.2363 66.8122 38.3668C66.8122 40.9959 64.8517 44.5429 60.9306 49.0079L45.0199 65.7345V73.2139ZM81.6898 73.0994V53.2499H78.0165V48.413H81.6898V46.314C81.6898 43.5456 82.4807 41.401 84.0626 39.88C85.6597 38.3437 87.888 37.5756 90.7478 37.5756C91.6604 37.5756 92.7783 37.7277 94.1014 38.0319L94.0328 43.1426C93.4857 43.0057 92.8162 42.9373 92.0254 42.9373C89.5459 42.9373 88.3062 44.1009 88.3062 46.428V48.413H93.2118V53.2499H88.3062V73.0994H81.6898ZM104.528 41.526V48.4763H108.749V53.3132H104.528V64.7522C104.528 65.6649 104.703 66.3189 105.053 66.7144C105.403 67.1098 106.072 67.3076 107.061 67.3076C107.791 67.3076 108.437 67.2543 109 67.1479V72.1445C107.707 72.54 106.376 72.7377 105.008 72.7377C100.383 72.7377 98.0258 70.4029 97.9347 65.7333V53.3132H94.3297V48.4763H97.9347V41.526H104.528Z" fill="white"></path>
</svg>
